<svg xmlns="http://www.w3.org/2000/svg" width="40" height="40" viewBox="0 0 40 40"><g fill="none" fill-rule="evenodd"><path fill="#324A5C" d="M26.405 11.391l-9.507 10.636-4.513-5.606a.626.626 0 0 0-.986-.05l-5.195 6.002-3.08-.005a.62.62 0 0 0-.621.619.62.62 0 0 0 .622.618l3.366.006a.622.622 0 0 0 .474-.218v.001l4.893-5.653 4.532 5.631a.625.625 0 0 0 .95.025l.002.001L26.9 12.706l5.786 5.747a.627.627 0 0 0 .973-.116l2.046-3.052.804 1.86c.14.323.616.395.894.233.335-.195.375-.565.235-.889l-1.256-2.904a.598.598 0 0 0-.607-.46h-3.257c-.841 0-.843 1.299 0 1.299h2.267l-1.756 2.618-5.691-5.651-.051-.052a.628.628 0 0 0-.882.052"/><path fill="#324A5C" d="M39.374 28.59a.623.623 0 0 0 .625-.621V4.348a.623.623 0 0 0-.625-.621H21.873a.623.623 0 0 0-.625.621c0 .343.28.621.625.621h16.876v22.378H1.25V4.97h18.127a.623.623 0 0 0 .625-.621l-.007-3.73A.62.62 0 0 0 19.373 0a.621.621 0 0 0-.622.619v3.108H.626A.623.623 0 0 0 0 4.348v23.62c0 .344.28.622.625.622h38.749z"/><path fill="#32495B" d="M39.374 29.834H28.238a.627.627 0 0 0-.227 0H19.48a.63.63 0 0 0-.207 0h-8.535a.627.627 0 0 0-.226 0H.625a.623.623 0 0 0-.625.621c0 .344.28.622.625.622h9.168l-2.265 7.898a.624.624 0 0 0 1.2.34l2.363-8.238h7.662l-.002 5.584a.62.62 0 0 0 .622.619.621.621 0 0 0 .622-.62l.003-5.583h7.66l2.366 8.237a.625.625 0 0 0 1.2-.339l-2.268-7.898h10.418c.345 0 .625-.28.625-.622a.623.623 0 0 0-.625-.62"/></g></svg>