<svg xmlns="http://www.w3.org/2000/svg" xmlns:xlink="http://www.w3.org/1999/xlink" width="20" height="19" viewBox="0 0 20 19"><defs><path id="a" d="M19.864 18.401V.011H0V18.4z"/></defs><g fill="none" fill-rule="evenodd"><g transform="translate(0 .15)"><mask id="b" fill="#fff"><use xlink:href="#a"/></mask><path fill="#FFF" d="M19.01 15.917c0 .918-.777 1.665-1.734 1.665H4.506a2.42 2.42 0 0 0 .668-1.665V.83H19.01v15.087zm-18.157 0V9.384h3.468v6.533c0 .918-.778 1.665-1.734 1.665S.853 16.835.853 15.917zM19.437.011H4.747a.418.418 0 0 0-.426.41v8.143H.427a.418.418 0 0 0-.427.41v6.943c0 1.37 1.16 2.484 2.587 2.484h14.69c1.426 0 2.587-1.114 2.587-2.484V.421a.419.419 0 0 0-.427-.41z" mask="url(#b)"/></g><path fill="#FFF" d="M11.493 4.892h5.469a.418.418 0 0 0 .427-.41.418.418 0 0 0-.427-.41h-5.469a.418.418 0 0 0-.427.41c0 .226.191.41.427.41m0 4.5h5.469a.418.418 0 0 0 .427-.41.418.418 0 0 0-.427-.41h-5.469a.418.418 0 0 0-.427.41c0 .226.191.41.427.41m0 4.5h5.469a.418.418 0 0 0 .427-.41.418.418 0 0 0-.427-.41h-5.469a.418.418 0 0 0-.427.41c0 .227.191.41.427.41M7.556 5.353c.08.082.193.128.31.128h.004a.435.435 0 0 0 .311-.134l2.344-2.464a.398.398 0 0 0-.027-.579.44.44 0 0 0-.603.027L7.86 4.469l-.633-.643a.44.44 0 0 0-.603-.017.398.398 0 0 0-.018.58l.949.964zm2.339 1.673L7.86 9.165l-.633-.644a.439.439 0 0 0-.604-.016.398.398 0 0 0-.017.579l.949.964c.08.082.193.129.31.129h.004a.435.435 0 0 0 .311-.134l2.344-2.464A.398.398 0 0 0 10.498 7a.44.44 0 0 0-.603.026m0 4.696L7.86 13.861l-.633-.644a.44.44 0 0 0-.604-.017.398.398 0 0 0-.017.58l.949.964c.08.082.193.128.31.128h.004a.431.431 0 0 0 .311-.133l2.344-2.465a.398.398 0 0 0-.027-.578.44.44 0 0 0-.603.026"/></g></svg>