<svg xmlns="http://www.w3.org/2000/svg" width="18" height="19" viewBox="0 0 18 19"><g fill="#FFF"><path d="M12.56 11.907l2.457 6.74c.074.203.274.34.5.34h1.932a.52.52 0 0 0 .53-.509V8.631C17.978 3.872 13.947 0 8.992 0 4.04 0 .008 3.872.008 8.631v9.847a.52.52 0 0 0 .53.509H2.47a.528.528 0 0 0 .5-.34l2.456-6.74a.491.491 0 0 0 .073-.257V9.453c0-1.67 1.279-3.071 2.965-3.318v1.961a.52.52 0 0 0 .53.509.52.52 0 0 0 .529-.509v-1.96c1.685.245 2.964 1.648 2.964 3.317v2.197a.49.49 0 0 0 .073.257zm-3.285-6.82H8.71c-2.395.141-4.27 2.059-4.27 4.366v2.082L2.093 17.97H1.067V8.63c0-4.198 3.555-7.614 7.926-7.614 4.37 0 7.926 3.416 7.926 7.614v9.339h-1.027l-2.346-6.435V9.453c0-2.307-1.876-4.225-4.271-4.365z"/><path d="M9.522 10.624a.52.52 0 0 0-.529-.509.52.52 0 0 0-.53.509v3.089c0 .28.238.509.53.509a.52.52 0 0 0 .53-.509v-3.09zm-.529 5.108a.52.52 0 0 0-.53.508v2.238c0 .28.238.509.53.509a.52.52 0 0 0 .53-.509V16.24a.52.52 0 0 0-.53-.508z"/></g></svg>