<svg xmlns="http://www.w3.org/2000/svg" xmlns:xlink="http://www.w3.org/1999/xlink" width="74" height="36" viewBox="0 0 74 36">
    <defs>
        <path id="a" d="M1.9 3.238H0V.264h1.9z"/>
        <path id="c" d="M.166 2.914h2.206V.012H.166v2.902z"/>
        <path id="e" d="M0 35.705h73.854V0H0z"/>
    </defs>
    <g fill="none" fill-rule="evenodd">
        <path fill="#FEFEFE" d="M16.756 2.87c-.686-.865-1.847-1.298-3.482-1.298H9.396v10.77h3.363c1.715 0 2.968-.432 3.76-1.297.79-.865 1.186-2.214 1.186-4.049 0-1.912-.316-3.287-.95-4.127zm5.935 24.447c-1.108 0-2.071-.183-2.888-.55-1.53-.708-2.494-1.991-2.89-3.852l-.117-1.69a34.214 34.214 0 0 0-.357-3.341c-.158-.97-.435-1.795-.831-2.476-.844-1.388-2.23-2.084-4.155-2.084H9.396v12.539h3.917v.982H.453v-.982H4.37V1.573H.453V.59h13.929c2.927 0 5.104.471 6.529 1.415 1.476.917 2.215 2.436 2.215 4.559 0 1.73-.686 3.119-2.057 4.166-1.4 1.075-3.496 1.822-6.292 2.24 3.298.683 5.381 1.874 6.252 3.577.448.865.772 1.808.97 2.83.198 1.023.31 2.123.336 3.302l.04 1.926c.158.603.475 1.022.95 1.258.237.131.659.196 1.265.196.422 0 .976-.04 1.662-.118v.904c-1.319.315-2.506.472-3.56.472z"/>
        <path fill="#FEFEFE" d="M47.417 18.277c-.105 2.935-1.095 5.188-2.967 6.76-1.873 1.599-4.247 2.397-7.123 2.397-3.667 0-6.687-1.283-9.06-3.851-2.428-2.568-3.642-5.791-3.642-9.669 0-3.825 1.227-7.1 3.68-9.826C30.76 1.363 33.7 0 37.13 0c1.372 0 2.599.197 3.68.59 1.108.393 2.018.878 2.73 1.454l1.623-1.65h.91v7.585h-1.147c-.766-2.673-1.834-4.494-3.206-5.463C40.321 1.494 38.883.983 37.407.983c-2.507 0-4.288.786-5.342 2.358-1.082 1.599-1.623 3.983-1.623 7.154v5.345c0 3.67.461 6.355 1.385 8.057.923 1.704 2.678 2.555 5.263 2.555 1.398 0 2.519-.367 3.364-1.1.896-.734 1.345-2.018 1.345-3.852v-3.223h-3.997v-.983h12.385v.983h-2.77zM70.57 1.572l-9.18 25.862h-1.187L50.785 1.572h-3.284V.59h12.544v.982h-4.076l6.727 18.395 6.687-18.395h-4.115V.59h8.586v.982z"/>
        <g transform="translate(0 32.467)">
            <mask id="b" fill="#fff">
                <use xlink:href="#a"/>
            </mask>
            <path fill="#FEFEFE" d="M.318 2.575c.07.104.158.18.267.23.11.049.221.073.337.073a.689.689 0 0 0 .38-.12c.055-.04.1-.089.135-.148a.389.389 0 0 0 .052-.204c0-.109-.035-.192-.105-.25a.884.884 0 0 0-.259-.143 4.922 4.922 0 0 0-.339-.112 1.376 1.376 0 0 1-.338-.15.822.822 0 0 1-.26-.258.802.802 0 0 1-.104-.438c0-.082.019-.17.055-.264a.735.735 0 0 1 .17-.255.945.945 0 0 1 .3-.194C.733.29.88.264 1.052.264c.155 0 .304.021.446.064.143.042.267.129.375.26L1.558.87a.516.516 0 0 0-.206-.18.649.649 0 0 0-.301-.067.741.741 0 0 0-.268.041.482.482 0 0 0-.172.109.386.386 0 0 0-.09.141.437.437 0 0 0-.026.14c0 .12.035.212.105.276.07.064.156.116.26.156.103.04.215.076.337.108.122.032.235.077.338.134.104.057.19.135.26.232s.105.231.105.402a.816.816 0 0 1-.29.643.948.948 0 0 1-.314.172c-.12.04-.25.06-.387.06-.182 0-.355-.032-.518-.096A.85.85 0 0 1 0 2.846l.318-.271z" mask="url(#b)"/>
        </g>
        <path fill="#FEFEFE" d="M4.584 35.346c.164 0 .311-.03.443-.09.131-.06.244-.14.338-.242.094-.102.166-.22.217-.358a1.25 1.25 0 0 0 .077-.438c0-.155-.026-.3-.077-.438a1.051 1.051 0 0 0-.999-.69 1.05 1.05 0 0 0-.78.333c-.094.1-.166.22-.217.357a1.25 1.25 0 0 0-.077.438c0 .155.026.3.077.438.051.137.123.256.217.358.094.101.207.181.339.242.131.06.279.09.442.09m0 .36c-.217 0-.417-.039-.6-.115a1.399 1.399 0 0 1-.774-.785 1.551 1.551 0 0 1-.11-.588c0-.21.036-.406.11-.588a1.398 1.398 0 0 1 .775-.785c.182-.076.382-.114.599-.114.218 0 .417.038.6.114a1.396 1.396 0 0 1 .775.785c.073.182.11.377.11.588 0 .21-.037.406-.11.588a1.397 1.397 0 0 1-.775.786 1.542 1.542 0 0 1-.6.113M7.43 32.803h.386v2.47h1.308v.36H7.43z"/>
        <g transform="translate(10.106 32.79)">
            <mask id="d" fill="#fff">
                <use xlink:href="#c"/>
            </mask>
            <path fill="#FEFEFE" d="M.552.012v1.735c0 .088.012.18.036.274a.806.806 0 0 0 .12.262c.057.08.131.145.222.196.091.05.204.076.339.076a.692.692 0 0 0 .337-.076.658.658 0 0 0 .222-.196.786.786 0 0 0 .12-.262c.025-.095.037-.186.037-.274V.012h.387v1.795c0 .165-.029.316-.085.45a1.07 1.07 0 0 1-.234.35 1.025 1.025 0 0 1-.35.227c-.134.054-.279.08-.434.08-.156 0-.301-.026-.435-.08a1.031 1.031 0 0 1-.584-.577 1.15 1.15 0 0 1-.084-.45V.012h.386z" mask="url(#d)"/>
        </g>
        <path fill="#FEFEFE" d="M15.946 33.414a.806.806 0 0 0-.305-.24.917.917 0 0 0-.383-.083 1.006 1.006 0 0 0-.771.336 1.122 1.122 0 0 0-.215.365 1.31 1.31 0 0 0-.004.874c.048.133.118.25.21.352a.981.981 0 0 0 .333.24c.132.058.281.088.447.088a.888.888 0 0 0 .43-.1.922.922 0 0 0 .315-.28l.326.243a1.215 1.215 0 0 1-.326.29 1.383 1.383 0 0 1-.753.206 1.423 1.423 0 0 1-1.073-.463 1.475 1.475 0 0 1-.392-1c0-.218.036-.42.109-.605.072-.186.174-.346.304-.48.13-.135.286-.24.468-.314a1.577 1.577 0 0 1 1.158-.004c.18.072.33.182.444.332l-.322.243z"/>
        <mask id="f" fill="#fff">
            <use xlink:href="#e"/>
        </mask>
        <path fill="#FEFEFE" d="M17.6 35.633h.53v-2.83h-.53zM20.833 35.346a1.054 1.054 0 0 0 .781-.332c.094-.102.166-.22.217-.358.051-.138.076-.283.076-.438 0-.155-.025-.3-.076-.438a1.045 1.045 0 0 0-.999-.69 1.052 1.052 0 0 0-.78.333c-.094.1-.166.22-.218.357a1.25 1.25 0 0 0-.076.438c0 .155.026.3.076.438.052.137.124.256.218.358.094.101.206.181.338.242.132.06.279.09.443.09m0 .36c-.218 0-.417-.039-.6-.115a1.399 1.399 0 0 1-.775-.785 1.545 1.545 0 0 1-.11-.588c0-.21.037-.406.11-.588a1.398 1.398 0 0 1 .775-.785c.183-.076.382-.114.6-.114.217 0 .417.038.6.114a1.397 1.397 0 0 1 .774.785c.074.182.11.377.11.588 0 .21-.036.406-.11.588a1.397 1.397 0 0 1-.775.786 1.545 1.545 0 0 1-.6.113M23.678 32.803h.508l1.57 2.326h.007v-2.326h.387v2.83h-.492l-1.585-2.327h-.008v2.327h-.387zM27.687 32.803h1.84v.36h-1.453v.843h1.352v.36h-1.352v.908h1.525v.36h-1.912zM31.035 35.042c.07.104.16.18.268.23.109.049.221.073.336.073a.685.685 0 0 0 .38-.12c.056-.04.1-.089.136-.148a.389.389 0 0 0 .052-.204c0-.108-.035-.192-.105-.249a.884.884 0 0 0-.26-.144 4.796 4.796 0 0 0-.338-.112 1.373 1.373 0 0 1-.338-.15.82.82 0 0 1-.26-.258.802.802 0 0 1-.104-.438.732.732 0 0 1 .226-.52.94.94 0 0 1 .3-.193c.121-.052.268-.078.44-.078.156 0 .305.021.447.064.142.042.267.129.374.26l-.314.283a.516.516 0 0 0-.205-.18.649.649 0 0 0-.302-.067.74.74 0 0 0-.267.042.482.482 0 0 0-.172.108.381.381 0 0 0-.09.142.428.428 0 0 0-.026.14c0 .12.035.211.104.275.07.064.157.117.26.156.104.04.216.076.338.109.122.03.235.076.338.133.104.057.19.135.26.232s.105.231.105.402a.835.835 0 0 1-.29.643.948.948 0 0 1-.314.172c-.12.04-.25.06-.387.06-.182 0-.355-.032-.519-.096a.85.85 0 0 1-.39-.296l.317-.271zM35.918 32.803h1.84v.36h-1.453v.843h1.352v.36h-1.352v.908h1.525v.36h-1.912zM39.267 35.042c.07.104.158.18.267.23.109.049.221.073.336.073a.685.685 0 0 0 .38-.12.49.49 0 0 0 .135-.148.386.386 0 0 0 .053-.204c0-.108-.035-.192-.105-.249a.886.886 0 0 0-.26-.144 4.853 4.853 0 0 0-.338-.112 1.376 1.376 0 0 1-.338-.15.819.819 0 0 1-.26-.258.8.8 0 0 1-.104-.438.74.74 0 0 1 .226-.52.942.942 0 0 1 .3-.193c.122-.052.268-.078.44-.078.156 0 .305.021.447.064.143.042.267.129.375.26l-.315.283a.515.515 0 0 0-.205-.18.648.648 0 0 0-.302-.067.741.741 0 0 0-.267.042.48.48 0 0 0-.172.108.382.382 0 0 0-.09.142.428.428 0 0 0-.026.14c0 .12.035.211.104.275.07.064.157.117.26.156.103.04.216.076.338.109.122.03.235.076.338.133.104.057.19.135.26.232a.68.68 0 0 1 .105.402.835.835 0 0 1-.29.643.941.941 0 0 1-.314.172c-.121.04-.25.06-.387.06-.182 0-.355-.032-.519-.096a.851.851 0 0 1-.39-.296l.318-.271zM42.82 33.162h-.917v-.359h2.222v.36h-.918v2.47h-.386zM45.727 34.05h.507c.075 0 .15-.006.223-.018a.59.59 0 0 0 .198-.066.358.358 0 0 0 .138-.138.458.458 0 0 0 .053-.234.463.463 0 0 0-.053-.234.367.367 0 0 0-.138-.138.62.62 0 0 0-.198-.065 1.352 1.352 0 0 0-.223-.018h-.507v.911zm-.387-1.247h1.003c.182 0 .332.024.45.074.119.049.212.112.28.188a.635.635 0 0 1 .143.256c.027.094.04.185.04.273a.721.721 0 0 1-.187.49.79.79 0 0 1-.513.258l.809 1.291h-.483l-.725-1.247h-.43v1.247h-.387v-2.83zM50.19 34.598l-.531-1.3h-.008l-.54 1.3h1.08zm-.692-1.795h.35l1.22 2.83h-.451l-.286-.7h-1.356l-.282.7h-.45l1.255-2.83zM52.468 33.162h-.917v-.359h2.221v.36h-.917v2.47h-.387zM56.006 32.067h.515l-.6.576h-.333l.418-.576zm-1.018.736h1.84v.36h-1.454v.843h1.352v.36h-1.352v.907H56.9v.36h-1.911v-2.83zM60.679 34.05v1.396c-.07.042-.149.08-.238.111a2.38 2.38 0 0 1-.565.133 2.55 2.55 0 0 1-.276.015 1.65 1.65 0 0 1-.646-.12 1.424 1.424 0 0 1-.479-.324 1.397 1.397 0 0 1-.297-.473 1.589 1.589 0 0 1-.103-.57c0-.21.036-.406.11-.588a1.394 1.394 0 0 1 .775-.785c.183-.076.382-.114.6-.114.263 0 .477.032.644.098.167.065.306.155.419.27l-.274.291a1.01 1.01 0 0 0-.375-.233 1.294 1.294 0 0 0-.414-.066 1.05 1.05 0 0 0-.78.332c-.095.1-.167.22-.218.357a1.25 1.25 0 0 0 .008.884 1.07 1.07 0 0 0 .584.595c.133.058.28.087.438.087.137 0 .266-.013.388-.038.123-.026.227-.063.313-.11v-.788h-.632v-.36h1.018zM62.188 35.633h.529v-2.83h-.529zM66.096 33.414a.806.806 0 0 0-.305-.24.917.917 0 0 0-.383-.083 1.006 1.006 0 0 0-.771.336 1.128 1.128 0 0 0-.215.365 1.31 1.31 0 0 0-.004.874c.048.133.118.25.21.352a.986.986 0 0 0 .334.24c.13.058.28.088.446.088a.888.888 0 0 0 .43-.1.922.922 0 0 0 .315-.28l.326.243a1.215 1.215 0 0 1-.326.29 1.383 1.383 0 0 1-.753.206 1.423 1.423 0 0 1-1.073-.463 1.475 1.475 0 0 1-.392-1c0-.218.036-.42.109-.605.072-.186.174-.346.304-.48.13-.135.286-.24.468-.314a1.577 1.577 0 0 1 1.158-.004c.181.072.33.182.444.332l-.322.243zM69.337 34.598l-.532-1.3h-.008l-.54 1.3h1.08zm-.693-1.795h.35l1.22 2.83h-.45l-.286-.7H68.12l-.282.7h-.45l1.255-2.83zM71.474 35.042c.07.104.159.18.267.23.11.049.221.073.337.073a.685.685 0 0 0 .38-.12c.055-.04.1-.089.135-.148a.386.386 0 0 0 .052-.204c0-.108-.035-.192-.104-.249a.884.884 0 0 0-.26-.144 4.841 4.841 0 0 0-.338-.112 1.37 1.37 0 0 1-.338-.15.823.823 0 0 1-.26-.258.802.802 0 0 1-.105-.438c0-.082.018-.17.055-.263a.736.736 0 0 1 .171-.256.94.94 0 0 1 .3-.194c.122-.052.269-.078.44-.078.156 0 .305.021.447.064.142.042.267.129.375.26l-.315.283a.514.514 0 0 0-.205-.18.649.649 0 0 0-.302-.067.741.741 0 0 0-.267.042.48.48 0 0 0-.171.108.378.378 0 0 0-.09.142.428.428 0 0 0-.027.14c0 .12.035.211.104.275.07.064.157.117.26.156.104.04.216.076.338.109.122.03.235.076.338.133.104.057.19.135.26.232s.105.231.105.402a.835.835 0 0 1-.29.643.948.948 0 0 1-.314.172c-.12.04-.25.06-.387.06-.182 0-.355-.032-.518-.096a.852.852 0 0 1-.391-.296l.318-.271zM.453 30.621h73.401v-.81H.454z" mask="url(#f)"/>
    </g>
</svg>
