<svg xmlns="http://www.w3.org/2000/svg" width="22" height="22" viewBox="0 0 22 22">
    <g fill="#FFF" fill-rule="evenodd">
        <path d="M14.523 6.14l-5.23 5.734-2.481-3.022a.349.349 0 0 0-.542-.027L3.412 12.06l-1.693-.002a.338.338 0 0 0-.343.333c0 .184.154.334.343.334l1.85.003a.345.345 0 0 0 .262-.118v.001l2.69-3.047 2.494 3.035a.348.348 0 0 0 .522.013l.001.001 5.257-5.764 3.183 3.099a.35.35 0 0 0 .534-.063l1.126-1.645.442 1.002c.077.174.339.213.492.126.184-.105.206-.305.129-.48l-.69-1.565a.327.327 0 0 0-.335-.248h-1.791c-.463 0-.464.7 0 .7h1.247l-.966 1.412-3.13-3.047-.028-.027a.35.35 0 0 0-.485.027"/>
        <path d="M21.656 15.412a.34.34 0 0 0 .343-.335V2.344a.34.34 0 0 0-.343-.335H12.03a.34.34 0 0 0-.344.335.34.34 0 0 0 .344.335h9.282v12.063H.687V2.679h9.97a.34.34 0 0 0 .344-.335l-.004-2.01A.338.338 0 0 0 10.655 0a.338.338 0 0 0-.342.334v1.675H.344A.34.34 0 0 0 0 2.344v12.733a.34.34 0 0 0 .344.335h21.312zM21.656 16.082H15.53a.352.352 0 0 0-.125 0h-4.693a.353.353 0 0 0-.113 0H5.906a.352.352 0 0 0-.125 0H.344a.34.34 0 0 0-.344.335.34.34 0 0 0 .344.335h5.042L4.141 21.01a.334.334 0 0 0 .236.413.344.344 0 0 0 .424-.23l1.299-4.44h4.214l-.001 3.01c0 .184.153.333.342.333.19 0 .342-.15.342-.334l.002-3.01h4.213l1.301 4.44c.052.179.242.281.424.231a.333.333 0 0 0 .236-.413l-1.247-4.258h5.73a.34.34 0 0 0 .343-.335.34.34 0 0 0-.343-.335"/>
    </g>
</svg>
