<svg xmlns="http://www.w3.org/2000/svg" width="33" height="36" viewBox="0 0 33 36">
    <g fill="#FFF" fill-rule="nonzero">
        <path d="M23.026 22.56l4.504 12.77a.97.97 0 0 0 .916.645h3.544c.536 0 .97-.432.97-.964V16.354C32.96 7.337 25.57 0 16.487 0 7.404 0 .014 7.337.014 16.354v18.657c0 .532.435.964.97.964h3.544a.97.97 0 0 0 .916-.645l4.504-12.77a.954.954 0 0 0 .133-.487V17.91c0-3.161 2.345-5.819 5.436-6.285v3.715c0 .533.434.964.97.964s.97-.431.97-.964v-3.715c3.091.466 5.436 3.123 5.436 6.285v4.163c0 .178.049.345.133.488zM17.004 9.64a.944.944 0 0 0-.06-.002h-.914c-.02 0-.04 0-.06.002-4.39.266-7.83 3.9-7.83 8.27v3.945l-4.3 12.193H1.954V16.354c0-7.955 6.52-14.427 14.532-14.427C24.5 1.927 31.02 8.4 31.02 16.354v17.694h-1.884l-4.3-12.193V17.91c0-4.37-3.44-8.004-7.831-8.27z"/>
        <path d="M17.458 20.13a.967.967 0 0 0-.97-.964.967.967 0 0 0-.971.963v5.853c0 .533.434.964.97.964s.97-.431.97-.964V20.13zM16.487 29.808a.967.967 0 0 0-.97.963v4.24c0 .532.434.964.97.964s.97-.432.97-.964v-4.24a.967.967 0 0 0-.97-.963z"/>
    </g>
</svg>
