<svg xmlns="http://www.w3.org/2000/svg" width="24" height="19" viewBox="0 0 24 19">
    <path fill="#324A5C" fill-rule="nonzero" d="M21.857 12.955H21v-2.16c0-1.187-.964-2.159-2.143-2.159H12.43v-2.59h.857a2.157 2.157 0 0 0 2.143-2.16V2.16C15.429.972 14.464 0 13.286 0h-2.572a2.157 2.157 0 0 0-2.143 2.16v1.726c0 1.188.965 2.16 2.143 2.16h.857v2.59H5.143A2.157 2.157 0 0 0 3 10.796v2.159h-.857A2.157 2.157 0 0 0 0 15.114v1.727C0 18.028.964 19 2.143 19h2.571a2.157 2.157 0 0 0 2.143-2.16v-1.726c0-1.188-.964-2.16-2.143-2.16h-.857v-2.159c0-.712.579-1.295 1.286-1.295h6.428v3.455h-.857a2.157 2.157 0 0 0-2.143 2.159v1.727c0 1.187.965 2.159 2.143 2.159h2.572a2.157 2.157 0 0 0 2.143-2.16v-1.726c0-1.188-.965-2.16-2.143-2.16h-.857V9.5h6.428c.707 0 1.286.583 1.286 1.295v2.16h-.857a2.157 2.157 0 0 0-2.143 2.159v1.727c0 1.187.964 2.159 2.143 2.159h2.571A2.157 2.157 0 0 0 24 16.84v-1.726c0-1.188-.964-2.16-2.143-2.16zm-17.143.863c.707 0 1.286.583 1.286 1.296v1.727c0 .712-.579 1.295-1.286 1.295H2.143a1.294 1.294 0 0 1-1.286-1.295v-1.727c0-.713.579-1.296 1.286-1.296h2.571zm8.572 0c.707 0 1.285.583 1.285 1.296v1.727c0 .712-.578 1.295-1.285 1.295h-2.572a1.294 1.294 0 0 1-1.285-1.295v-1.727c0-.713.578-1.296 1.285-1.296h2.572zm-2.572-8.636A1.294 1.294 0 0 1 9.43 3.886V2.16c0-.712.578-1.295 1.285-1.295h2.572c.707 0 1.285.583 1.285 1.295v1.727c0 .713-.578 1.296-1.285 1.296h-2.572zM23.143 16.84c0 .712-.579 1.295-1.286 1.295h-2.571A1.294 1.294 0 0 1 18 16.841v-1.727c0-.713.579-1.296 1.286-1.296h2.571c.707 0 1.286.583 1.286 1.296v1.727z"/>
</svg>
