<svg xmlns="http://www.w3.org/2000/svg" xmlns:xlink="http://www.w3.org/1999/xlink" width="36" height="35" viewBox="0 0 36 35">
    <defs>
        <path id="a" d="M35.755 33.991V.021H0v33.97z"/>
    </defs>
    <g fill="none" fill-rule="evenodd">
        <g transform="translate(0 .275)">
            <mask id="b" fill="#fff">
                <use xlink:href="#a"/>
            </mask>
            <path fill="#FFF" d="M34.219 29.403c0 1.695-1.4 3.075-3.121 3.075H8.11a4.534 4.534 0 0 0 1.203-3.075V1.533h24.905v27.87zm-32.683 0v-12.07h6.242v12.07c0 1.695-1.4 3.075-3.121 3.075-1.72 0-3.12-1.38-3.12-3.075zM34.986.02H8.547a.762.762 0 0 0-.768.757V15.82H.768a.762.762 0 0 0-.768.757v12.826c0 2.53 2.089 4.588 4.657 4.588h26.44c2.569 0 4.658-2.058 4.658-4.588V.777a.763.763 0 0 0-.768-.757z" mask="url(#b)"/>
        </g>
        <path fill="#FFF" d="M20.688 9.036h9.844a.762.762 0 0 0 .768-.757.762.762 0 0 0-.768-.756h-9.844a.762.762 0 0 0-.768.756c0 .418.343.757.768.757M20.688 17.349h9.844a.762.762 0 0 0 .768-.757.762.762 0 0 0-.768-.757h-9.844a.762.762 0 0 0-.768.757c0 .418.343.757.768.757M20.688 25.662h9.844a.762.762 0 0 0 .768-.757.762.762 0 0 0-.768-.756h-9.844a.762.762 0 0 0-.768.756c0 .418.343.757.768.757M13.6 9.887a.774.774 0 0 0 .559.237h.006a.773.773 0 0 0 .561-.246l4.219-4.553a.75.75 0 0 0-.05-1.069.776.776 0 0 0-1.084.05l-3.662 3.95-1.14-1.19a.776.776 0 0 0-1.085-.03.749.749 0 0 0-.031 1.07L13.6 9.887zM17.81 12.98l-3.66 3.95-1.14-1.189a.776.776 0 0 0-1.086-.03.75.75 0 0 0-.031 1.069l1.707 1.781a.776.776 0 0 0 .559.237h.007a.773.773 0 0 0 .56-.246L18.945 14a.75.75 0 0 0-.05-1.07.776.776 0 0 0-1.084.05M17.81 21.653l-3.66 3.95-1.14-1.188a.776.776 0 0 0-1.086-.03.75.75 0 0 0-.031 1.069l1.707 1.782a.776.776 0 0 0 .559.236h.007a.771.771 0 0 0 .56-.246l4.219-4.552a.749.749 0 0 0-.05-1.07.776.776 0 0 0-1.084.05"/>
    </g>
</svg>
